<svg width="226" height="226" viewBox="0 0 226 226" fill="none" xmlns="http://www.w3.org/2000/svg">
<path fill-rule="evenodd" clip-rule="evenodd" d="M113 226C175.408 226 226 175.408 226 113H113H0C0 175.408 50.5918 226 113 226Z" fill="#500000"/>
<path d="M113 0C50.5918 0 0 50.5918 0 113H113H226C226 50.5918 175.408 0 113 0Z" fill="#D9D9D9"/>
<path d="M32.136 161.64C28.552 161.64 25.2453 161.064 22.216 159.912C19.2293 158.76 16.6267 157.16 14.408 155.112C12.232 153.021 10.5467 150.547 9.352 147.688C8.15733 144.829 7.56 141.693 7.56 138.28C7.56 134.867 8.15733 131.731 9.352 128.872C10.5893 126.013 12.3173 123.56 14.536 121.512C16.7547 119.421 19.3787 117.8 22.408 116.648C25.48 115.496 28.8507 114.92 32.52 114.92C34.6107 114.92 36.6587 115.176 38.664 115.688C40.712 116.157 42.632 116.904 44.424 117.928C46.2587 118.909 47.9227 120.168 49.416 121.704L41.16 131.368C40.5627 130.643 39.8373 129.981 38.984 129.384C38.1733 128.787 37.2133 128.317 36.104 127.976C35.0373 127.592 33.8 127.4 32.392 127.4C30.9413 127.4 29.5547 127.656 28.232 128.168C26.952 128.637 25.8213 129.341 24.84 130.28C23.9013 131.219 23.1547 132.371 22.6 133.736C22.0453 135.101 21.768 136.68 21.768 138.472C21.768 140.093 22.0453 141.565 22.6 142.888C23.1547 144.211 23.944 145.341 24.968 146.28C25.992 147.219 27.2293 147.944 28.68 148.456C30.1307 148.968 31.752 149.224 33.544 149.224C34.824 149.224 36.04 149.032 37.192 148.648C38.344 148.264 39.3893 147.773 40.328 147.176C41.2667 146.536 42.0773 145.832 42.76 145.064L49.352 155.432C48.2427 156.627 46.7707 157.693 44.936 158.632C43.1013 159.571 41.0747 160.317 38.856 160.872C36.6373 161.384 34.3973 161.64 32.136 161.64ZM70.925 161.64C67.5543 161.64 64.5677 161.277 61.965 160.552C59.405 159.784 57.1437 158.717 55.181 157.352C53.261 155.987 51.533 154.387 49.997 152.552L57.997 143.592C60.1303 146.323 62.349 148.136 64.653 149.032C66.9997 149.885 69.197 150.312 71.245 150.312C72.0557 150.312 72.781 150.248 73.421 150.12C74.061 149.949 74.5517 149.693 74.893 149.352C75.2343 149.011 75.405 148.541 75.405 147.944C75.405 147.389 75.213 146.92 74.829 146.536C74.4877 146.152 74.0183 145.832 73.421 145.576C72.8237 145.277 72.1623 145.043 71.437 144.872C70.7543 144.659 70.0717 144.488 69.389 144.36C68.749 144.232 68.173 144.104 67.661 143.976C65.101 143.379 62.861 142.653 60.941 141.8C59.021 140.947 57.421 139.923 56.141 138.728C54.861 137.533 53.901 136.168 53.261 134.632C52.6637 133.096 52.365 131.368 52.365 129.448C52.365 127.272 52.8557 125.288 53.837 123.496C54.861 121.704 56.205 120.168 57.869 118.888C59.5757 117.608 61.4957 116.627 63.629 115.944C65.805 115.261 68.045 114.92 70.349 114.92C73.7197 114.92 76.5357 115.24 78.797 115.88C81.0583 116.477 82.957 117.352 84.493 118.504C86.029 119.656 87.3517 121 88.461 122.536L80.397 130.28C79.4583 129.384 78.477 128.659 77.453 128.104C76.429 127.507 75.3623 127.08 74.253 126.824C73.1863 126.525 72.1197 126.376 71.053 126.376C70.0717 126.376 69.2397 126.461 68.557 126.632C67.8743 126.76 67.341 126.995 66.957 127.336C66.573 127.635 66.381 128.061 66.381 128.616C66.381 129.171 66.6157 129.64 67.085 130.024C67.597 130.365 68.2157 130.664 68.941 130.92C69.709 131.176 70.4557 131.389 71.181 131.56C71.949 131.688 72.589 131.795 73.101 131.88C75.4477 132.307 77.6023 132.904 79.565 133.672C81.5277 134.397 83.2343 135.336 84.685 136.488C86.1783 137.597 87.309 139.005 88.077 140.712C88.8877 142.376 89.293 144.36 89.293 146.664C89.293 149.949 88.461 152.701 86.797 154.92C85.1757 157.139 82.9783 158.824 80.205 159.976C77.4317 161.085 74.3383 161.64 70.925 161.64ZM106.869 161V127.976H93.045V116.2H134.901V127.976H120.693V161H106.869ZM132.345 161L150.329 116.2H161.209L179.065 161H165.369L158.201 141.416C157.732 140.093 157.326 138.963 156.985 138.024C156.644 137.085 156.345 136.211 156.089 135.4C155.833 134.547 155.577 133.651 155.321 132.712C155.065 131.731 154.809 130.579 154.553 129.256H156.729C156.473 130.579 156.217 131.731 155.961 132.712C155.705 133.651 155.428 134.547 155.129 135.4C154.873 136.211 154.553 137.085 154.169 138.024C153.828 138.963 153.422 140.093 152.953 141.416L145.785 161H132.345ZM141.305 154.344L145.337 144.936H166.137L169.785 154.344H141.305ZM190.369 161V127.976H176.545V116.2H218.401V127.976H204.193V161H190.369Z" fill="white"/>
</svg>
